<?xml version="1.0" encoding="iso-8859-1"?>
<!-- Generator: Adobe Illustrator 16.0.0, SVG Export Plug-In . SVG Version: 6.00 Build 0)  -->
<!DOCTYPE svg PUBLIC "-//W3C//DTD SVG 1.1//EN" "http://www.w3.org/Graphics/SVG/1.1/DTD/svg11.dtd">
<svg version="1.1" id="Capa_1" xmlns="http://www.w3.org/2000/svg" xmlns:xlink="http://www.w3.org/1999/xlink" x="0px" y="0px"
	 width="509.972px" height="509.972px" viewBox="0 0 509.972 509.972" style="enable-background:new 0 0 509.972 509.972;"
	 xml:space="preserve">
<g>
	<g>
		<path d="M377.747,232.12c-2.595-8.137-11.64-14.75-20.185-14.75H152.418c-8.545,0-17.588,6.604-20.197,14.75l-6.058,18.988
			c-2.616,8.139,2.212,14.739,10.77,14.739h6.461v130.939c9.171,1.937,18.213,4.069,27.078,6.366v-1.219
			c0-11.396,8.954-20.638,19.999-20.638c11.047,0,20,9.251,20,20.638v12.746c8.51,2.717,16.783,5.456,24.514,8.172v-20.922
			c0-11.402,8.952-20.647,19.999-20.647s19.998,9.255,19.998,20.647v8.031c7.864-2.758,16.051-5.492,24.535-8.228
			c0.107-11.304,8.989-20.451,19.979-20.451c6.987,0,13.129,3.738,16.728,9.362c10.734-3.006,21.753-5.89,32.959-8.569V265.841
			h3.864c8.545,0,13.385-6.608,10.78-14.743L377.747,232.12z M199.341,364.093h-31.027v-37.117h31.027V364.093z M199.341,311.35
			h-31.027v-37.112h31.027V311.35z M249.785,364.093h-31.013v-37.117h31.013V364.093z M249.785,311.35h-31.013v-37.112h31.013
			V311.35z M300.231,364.093h-30.994v-37.117h30.994V364.093z M300.231,311.35h-30.994v-37.112h30.994V311.35z M350.674,364.093
			H319.68v-37.117h30.994V364.093L350.674,364.093z M350.674,311.35H319.68v-37.112h30.994V311.35L350.674,311.35z"/>
		<path d="M254.984,0C114.377,0,0.001,114.385,0.001,254.983c0,140.603,114.376,254.989,254.983,254.989
			c140.609,0,254.986-114.386,254.986-254.989C509.971,114.385,395.594,0,254.984,0z M440.641,386.733
			c-76.512,10.464-153.299,36.655-202.658,56.07c-40.905-15.289-99.028-33.444-155.278-39.05
			c-21.487-24.852-37.68-54.357-46.872-86.812h91.087v-30.676c-5.186-1.797-9.651-5.036-12.851-9.433
			c-5.148-7.038-6.461-16.204-3.589-25.156l6.053-18.967c4.795-14.951,20.206-26.227,35.913-26.227h205.14
			c15.681,0,31.124,11.275,35.88,26.227l6.067,18.967c2.847,8.952,1.54,18.118-3.565,25.156c-2.675,3.654-6.203,6.501-10.286,8.387
			v31.722h88.502C466.996,342.26,455.538,365.806,440.641,386.733z M476.115,309.632C472.251,190.795,374.779,95.624,255.003,95.624
			c-119.792,0-217.285,95.171-221.135,214.008c-4.331-17.52-6.669-35.811-6.669-54.649c0-125.603,102.174-227.793,227.795-227.793
			c125.615,0,227.795,102.186,227.795,227.793C482.784,273.818,480.441,292.113,476.115,309.632z"/>
		<path d="M279.981,52.411h-16.643l-5.127-15.814c-1.785-5.458-4.658-5.458-6.427,0l-5.155,15.814h-16.62
			c-5.754,0-6.637,2.742-1.986,6.114l13.448,9.768l-5.148,15.814c-1.766,5.465,0.556,7.159,5.202,3.79l13.448-9.777l13.451,9.777
			c4.657,3.37,6.978,1.675,5.203-3.79l-5.133-15.814l13.45-9.768C286.6,55.146,285.713,52.411,279.981,52.411z"/>
		<path d="M155.219,78.334l-3.209-9.831c-1.097-3.397-2.879-3.397-3.985,0l-3.197,9.831h-10.342c-3.57,0-4.124,1.704-1.242,3.806
			l8.375,6.072l-3.208,9.833c-1.097,3.398,0.336,4.448,3.234,2.354l8.354-6.081l8.375,6.081c2.882,2.093,4.343,1.043,3.234-2.354
			l-3.197-9.833l8.37-6.072c2.884-2.093,2.338-3.806-1.241-3.806H155.219z"/>
		<path d="M358.36,78.334l-3.192-9.831c-1.115-3.397-2.903-3.397-4.004,0l-3.211,9.831h-10.338c-3.58,0-4.126,1.704-1.223,3.806
			l8.354,6.072l-3.206,9.833c-1.102,3.398,0.354,4.448,3.229,2.354l8.378-6.081l8.354,6.081c2.903,2.093,4.331,1.043,3.239-2.354
			l-3.216-9.833l8.378-6.072c2.879-2.093,2.338-3.806-1.242-3.806H358.36z"/>
	</g>
</g>
<g>
</g>
<g>
</g>
<g>
</g>
<g>
</g>
<g>
</g>
<g>
</g>
<g>
</g>
<g>
</g>
<g>
</g>
<g>
</g>
<g>
</g>
<g>
</g>
<g>
</g>
<g>
</g>
<g>
</g>
</svg>
